<svg width="26" height="30" viewBox="0 0 26 30" fill="none" xmlns="http://www.w3.org/2000/svg">
<path d="M1.86325 9.78223H1.78648C0.802382 9.78223 -6.69878e-08 10.588 -6.69878e-08 11.5706V19.3569C-6.69878e-08 20.3434 0.802382 21.1465 1.78648 21.1465H1.86455C2.84865 21.1465 3.65103 20.3407 3.65103 19.3569V11.5705C3.64972 10.588 2.8461 9.78223 1.86325 9.78223Z" fill="white"/>
<path d="M4.50391 22.3608C4.50391 23.2652 5.24228 24.0018 6.14575 24.0018H7.90025V28.2076C7.90025 29.1953 8.70518 29.9985 9.68673 29.9985H9.7635C10.7489 29.9985 11.5525 29.194 11.5525 28.2076V24.0018H14.0045V28.2076C14.0045 29.1953 14.8119 29.9985 15.7935 29.9985H15.869C16.8544 29.9985 17.6567 29.194 17.6567 28.2076V24.0018H19.4125C20.3147 24.0018 21.0531 23.2652 21.0531 22.3608V10.0664H4.50391V22.3608Z" fill="white"/>
<path d="M16.9008 2.61209L18.2944 0.458645C18.384 0.322823 18.3443 0.137114 18.2074 0.0486835C18.0717 -0.0409937 17.8862 -0.00381626 17.7978 0.135807L16.3531 2.3636C15.2692 1.91908 14.0586 1.66929 12.7801 1.66929C11.5004 1.66929 10.2923 1.91908 9.2059 2.3636L7.76369 0.135807C7.67542 -0.00381626 7.48854 -0.0409937 7.35162 0.0486835C7.21469 0.137054 7.175 0.322823 7.26459 0.458645L8.65945 2.61209C6.14481 3.84577 4.44922 6.17091 4.44922 8.83807C4.44922 9.00204 4.45948 9.16346 4.47354 9.32357H21.0879C21.102 9.16346 21.1109 9.00204 21.1109 8.83807C21.111 6.17091 19.4141 3.84577 16.9008 2.61209ZM8.9282 6.46809C8.4867 6.46809 8.12837 6.11194 8.12837 5.66872C8.12837 5.2255 8.4867 4.87059 8.9282 4.87059C9.37225 4.87059 9.72803 5.22544 9.72803 5.66872C9.72803 6.112 9.3697 6.46809 8.9282 6.46809ZM16.6308 6.46809C16.1893 6.46809 15.8309 6.11194 15.8309 5.66872C15.8309 5.2255 16.1893 4.87059 16.6308 4.87059C17.0735 4.87059 17.4293 5.22544 17.4293 5.66872C17.4293 6.11194 17.0735 6.46809 16.6308 6.46809Z" fill="white"/>
<path d="M23.7744 9.78223H23.7002C22.7161 9.78223 21.9111 10.588 21.9111 11.5706V19.3569C21.9111 20.3434 22.7174 21.1465 23.7002 21.1465H23.7757C24.761 21.1465 25.5622 20.3407 25.5622 19.3569V11.5705C25.5622 10.588 24.7585 9.78223 23.7744 9.78223Z" fill="white"/>
</svg>
