<svg width="25" height="30" viewBox="0 0 25 30" fill="none" xmlns="http://www.w3.org/2000/svg">
<path d="M1.2652 11.0279C-1.27103 15.4291 0.341301 22.1081 3.14596 26.1578C4.54592 28.1824 5.9633 29.9998 7.90465 29.9998C7.94124 29.9998 7.97793 29.9992 8.0155 29.9977C8.9276 29.9613 9.58671 29.6805 10.224 29.4091C10.9395 29.1042 11.6794 28.7889 12.8401 28.7889C13.9443 28.7889 14.6489 29.0939 15.3304 29.3888C16.002 29.6794 16.6938 29.98 17.7159 29.9608C19.9027 29.9201 21.2453 27.959 22.4299 26.2289C23.666 24.4225 24.286 22.6686 24.4952 21.9984L24.5037 21.9717C24.5435 21.8526 24.4873 21.7226 24.3731 21.6702C24.3699 21.6687 24.3583 21.6639 24.3551 21.6625C23.97 21.505 20.5921 20.0065 20.5566 15.9222C20.5236 12.6039 23.0907 10.8467 23.6055 10.5282L23.6295 10.5132C23.6852 10.4773 23.7241 10.4204 23.7373 10.3552C23.7505 10.2902 23.7367 10.2226 23.6993 10.1679C21.9274 7.57489 19.2117 7.1841 18.1183 7.13708C17.9597 7.12125 17.7959 7.11328 17.6314 7.11328C16.3472 7.11328 15.117 7.5983 14.1287 7.988C13.4465 8.25702 12.8572 8.48935 12.4508 8.48935C11.9941 8.48935 11.4015 8.25417 10.7152 7.9819C9.7975 7.61767 8.75734 7.20495 7.65619 7.20495C7.62993 7.20495 7.60406 7.20525 7.57858 7.20574C5.01825 7.24341 2.59897 8.7082 1.2652 11.0279Z" fill="white"/>
<path d="M18.1206 0.000188994C16.5701 0.0633366 14.7102 1.01773 13.5985 2.31983C12.6538 3.41429 11.7309 5.23908 11.974 7.07842C11.9892 7.1935 12.0829 7.28232 12.1987 7.29127C12.3033 7.29944 12.4101 7.30357 12.5166 7.30367C14.0326 7.30367 15.668 6.46495 16.7849 5.11445C17.9604 3.68842 18.5548 1.85832 18.375 0.219042C18.3609 0.0905825 18.2478 -0.0048274 18.1206 0.000188994Z" fill="white"/>
</svg>
