<svg width="18" height="17" viewBox="0 0 18 17" fill="none" xmlns="http://www.w3.org/2000/svg">
<path d="M16.979 8.61594C17.0114 8.54186 17.0114 8.45838 16.979 8.38401C16.9627 8.34667 16.939 8.31297 16.9094 8.28474L13.0607 4.64249C12.9353 4.52379 12.7326 4.52379 12.6072 4.64249C12.4818 4.76119 12.4818 4.95304 12.6072 5.07174L15.9087 8.1964H6.0981C5.92104 8.1964 5.77734 8.3321 5.77734 8.49997C5.77734 8.66785 5.92104 8.80354 6.0981 8.80354H15.9087L12.6072 11.9282C12.4818 12.0469 12.4818 12.2388 12.6072 12.3575C12.6697 12.4167 12.7518 12.4464 12.8339 12.4464C12.9161 12.4464 12.9982 12.4167 13.0607 12.3575L16.9094 8.7149C16.939 8.68697 16.9627 8.65327 16.979 8.61594Z" fill="#0F2143"/>
<path d="M11.2264 10.0179C11.0493 10.0179 10.9056 10.1536 10.9056 10.3214V16.3929H0.641509V0.607143H10.9056V6.67857C10.9056 6.84645 11.0493 6.98214 11.2264 6.98214C11.4035 6.98214 11.5472 6.84645 11.5472 6.67857V0.303571C11.5472 0.135696 11.4035 0 11.2264 0H0.320754C0.143698 0 1.49889e-08 0.135696 1.49889e-08 0.303571V16.6964C1.49889e-08 16.8643 0.143698 17 0.320754 17H11.2264C11.4035 17 11.5472 16.8643 11.5472 16.6964V10.3214C11.5472 10.1536 11.4035 10.0179 11.2264 10.0179Z" fill="#0F2143"/>
</svg>
