<svg width="20" height="20" viewBox="0 0 20 20" fill="none" xmlns="http://www.w3.org/2000/svg">
<path fill-rule="evenodd" clip-rule="evenodd" d="M10 0C15.5227 0 20 4.47725 20 10C20 15.5227 15.5227 20 10 20C4.47725 20 0 15.5227 0 10C0 4.47725 4.47725 0 10 0ZM10 0.909085C4.97909 0.909085 0.909085 4.97909 0.909085 10C0.909085 15.0209 4.97909 19.0909 10 19.0909C15.0209 19.0909 19.0909 15.0209 19.0909 10C19.0909 4.97909 15.0209 0.909085 10 0.909085ZM10.3855 10.0005V15.7723H8.48912V10.0005H7.31641V8.08689H8.48912V6.9296C8.48912 5.36957 8.95549 4.24414 10.6646 4.24414H12.6973V6.15323H11.2655C10.5491 6.15323 10.3855 6.6296 10.3855 7.12868V8.08777H12.5909L12.29 10.0005H10.3855Z" fill="#0F2143"/>
</svg>
