<svg width="30" height="30" viewBox="0 0 30 30" fill="none" xmlns="http://www.w3.org/2000/svg">
<path fill-rule="evenodd" clip-rule="evenodd" d="M15 0C23.2841 0 30 6.71588 30 15C30 23.2841 23.2841 30 15 30C6.71588 30 0 23.2841 0 15C0 6.71588 6.71588 0 15 0ZM15 1.36363C7.46863 1.36363 1.36363 7.46863 1.36363 15C1.36363 22.5314 7.46863 28.6364 15 28.6364C22.5314 28.6364 28.6364 22.5314 28.6364 15C28.6364 7.46863 22.5314 1.36363 15 1.36363ZM15.5763 15.0017V23.6594H12.7317V15.0017H10.9727V12.1313H12.7317V10.3954C12.7317 8.05532 13.4313 6.36719 15.9949 6.36719H19.044V9.23081H16.8963C15.8217 9.23081 15.5763 9.94537 15.5763 10.694V12.1326H18.8845L18.4331 15.0017H15.5763Z" fill="white"/>
</svg>
