<svg width="30" height="30" viewBox="0 0 30 30" fill="none" xmlns="http://www.w3.org/2000/svg">
<path fill-rule="evenodd" clip-rule="evenodd" d="M15 0C23.2841 0 30 6.71588 30 15C30 23.2841 23.2841 30 15 30C6.71588 30 0 23.2841 0 15C0 6.71588 6.71588 0 15 0ZM15 1.36363C7.46863 1.36363 1.36363 7.46863 1.36363 15C1.36363 22.5314 7.46863 28.6364 15 28.6364C22.5314 28.6364 28.6364 22.5314 28.6364 15C28.6364 7.46863 22.5314 1.36363 15 1.36363ZM11.543 6.75H18.457C21.0999 6.75 23.25 8.90012 23.25 11.543V18.457C23.25 21.0999 21.0999 23.25 18.457 23.25H11.543C8.90012 23.25 6.75 21.0999 6.75 18.457V11.543C6.75 8.90012 8.90012 6.75 11.543 6.75ZM18.457 21.9609C20.3891 21.9609 21.9609 20.3891 21.9609 18.457V11.543C21.9609 9.61091 20.3891 8.03906 18.457 8.03906H11.543C9.61091 8.03906 8.03906 9.61091 8.03906 11.543V18.457C8.03906 20.3891 9.61091 21.9609 11.543 21.9609H18.457ZM15.002 10.5547C12.5497 10.5547 10.5547 12.5497 10.5547 15.002C10.5547 17.4542 12.5497 19.4492 15.002 19.4492C17.4542 19.4492 19.4492 17.4542 19.4492 15.002C19.4492 12.5497 17.4542 10.5547 15.002 10.5547ZM15.002 18.1602C13.2605 18.1602 11.8438 16.7434 11.8438 15.002C11.8438 13.2605 13.2605 11.8438 15.002 11.8438C16.7434 11.8438 18.1602 13.2605 18.1602 15.002C18.1602 16.7434 16.7434 18.1602 15.002 18.1602ZM20.1562 10.4883C20.1562 10.8442 19.8677 11.1328 19.5117 11.1328C19.1558 11.1328 18.8672 10.8442 18.8672 10.4883C18.8672 10.1323 19.1558 9.84375 19.5117 9.84375C19.8677 9.84375 20.1562 10.1323 20.1562 10.4883Z" fill="white"/>
</svg>
