<svg width="30" height="30" viewBox="0 0 30 30" fill="none" xmlns="http://www.w3.org/2000/svg">
<path fill-rule="evenodd" clip-rule="evenodd" d="M15 0C23.2841 0 30 6.71588 30 15C30 23.2841 23.2841 30 15 30C6.71588 30 0 23.2841 0 15C0 6.71588 6.71588 0 15 0ZM15 1.36363C7.46863 1.36363 1.36363 7.46863 1.36363 15C1.36363 22.5314 7.46863 28.6364 15 28.6364C22.5314 28.6364 28.6364 22.5314 28.6364 15C28.6364 7.46863 22.5314 1.36363 15 1.36363ZM21.9681 11.1816C22.6839 11.0977 23.3651 10.9098 24 10.6328C23.5268 11.3313 22.9253 11.9449 22.2301 12.4333L22.2419 12.8845C22.2419 17.4898 18.6837 22.8 12.1741 22.8C10.1757 22.8 8.31623 22.2225 6.75 21.232C7.02702 21.2628 7.30837 21.2798 7.59401 21.2798C9.25185 21.2798 10.7782 20.7245 11.9887 19.7903C10.4408 19.7627 9.13434 18.7552 8.68378 17.3698C8.90045 17.4123 9.12143 17.4346 9.34993 17.4346C9.67332 17.4346 9.9859 17.391 10.2823 17.3125C8.66439 16.9918 7.44417 15.5831 7.44417 13.8951V13.8516C7.92168 14.1127 8.46711 14.2699 9.04704 14.289C8.09846 13.6648 7.47326 12.5978 7.47326 11.3886C7.47326 10.7495 7.6468 10.1508 7.95186 9.63695C9.69702 11.7453 12.3045 13.1329 15.2451 13.2783C15.1847 13.0235 15.1534 12.7571 15.1534 12.4842C15.1534 10.5606 16.738 9 18.6923 9C19.7109 9 20.6293 9.42253 21.275 10.1009C22.0813 9.94378 22.838 9.65394 23.5235 9.25478C23.2584 10.0669 22.6989 10.7506 21.9681 11.1816Z" fill="white"/>
</svg>
