<svg width="20" height="20" viewBox="0 0 20 20" fill="none" xmlns="http://www.w3.org/2000/svg">
<path fill-rule="evenodd" clip-rule="evenodd" d="M10 0C15.5227 0 20 4.47725 20 10C20 15.5227 15.5227 20 10 20C4.47725 20 0 15.5227 0 10C0 4.47725 4.47725 0 10 0ZM10 0.909085C4.97909 0.909085 0.909085 4.97909 0.909085 10C0.909085 15.0209 4.97909 19.0909 10 19.0909C15.0209 19.0909 19.0909 15.0209 19.0909 10C19.0909 4.97909 15.0209 0.909085 10 0.909085ZM14.6493 7.45442C15.1265 7.39849 15.5806 7.27322 16.0039 7.0885C15.6884 7.55421 15.2874 7.96328 14.824 8.28886L14.8319 8.58965C14.8319 11.6598 12.4597 15.2 8.11999 15.2C6.78767 15.2 5.54806 14.815 4.50391 14.1547C4.68858 14.1752 4.87615 14.1865 5.06658 14.1865C6.1718 14.1865 7.18937 13.8164 7.99638 13.1935C6.96444 13.1751 6.09346 12.5035 5.79309 11.5799C5.93754 11.6082 6.08486 11.623 6.2372 11.623C6.45278 11.623 6.66117 11.594 6.8588 11.5416C5.78016 11.3279 4.96669 10.3887 4.96669 9.2634V9.23439C5.28502 9.4085 5.64865 9.51324 6.03527 9.52598C5.40288 9.10984 4.98608 8.39855 4.98608 7.59242C4.98608 7.16634 5.10178 6.76719 5.30515 6.42463C6.46859 7.83023 8.20691 8.75525 10.1673 8.85222C10.127 8.68235 10.1062 8.50471 10.1062 8.32282C10.1062 7.04039 11.1626 6 12.4654 6C13.1445 6 13.7568 6.28169 14.1872 6.73394C14.7248 6.62919 15.2292 6.43596 15.6863 6.16985C15.5095 6.71128 15.1365 7.16707 14.6493 7.45442Z" fill="#0F2143"/>
</svg>
