<svg width="15" height="17" viewBox="0 0 15 17" fill="none" xmlns="http://www.w3.org/2000/svg">
<path d="M10.6289 9.97366L10.5828 9.95402C10.4725 9.9068 10.3615 9.86227 10.2483 9.82058C10.1249 9.774 9.99958 9.73091 9.87248 9.69056C9.77211 9.65955 9.671 9.63057 9.56881 9.60229C9.41315 9.5599 9.25596 9.52159 9.09409 9.48779C9.03914 9.47711 8.98312 9.46675 8.92743 9.45742L8.88936 9.4505C8.79378 9.4329 8.6978 9.41739 8.60073 9.40392L8.57292 9.39979C8.57184 9.39979 8.57109 9.39909 8.57001 9.39909L8.5422 9.39566C8.46161 9.38428 8.38141 9.3736 8.29786 9.36464L8.01362 9.34259C7.66418 9.32086 7.30408 9.32156 6.95868 9.34533L6.85797 9.35327L6.81106 9.3567L6.69348 9.36668C6.58542 9.37736 6.47809 9.39153 6.37077 9.40773L6.33925 9.41186C6.26601 9.42324 6.19271 9.43601 6.12056 9.44878C6.04036 9.46225 5.9612 9.47706 5.88209 9.49326C5.729 9.52567 5.57693 9.56259 5.42971 9.60294C5.31247 9.63465 5.19677 9.66947 5.08796 9.70467L5.0125 9.73021C4.78172 9.80711 4.55243 9.89537 4.33043 9.99228L4.2711 10.0188L4.27002 10.0202C1.67403 11.19 0 13.6822 0 16.3865C0 16.4486 0.00438872 16.5096 0.00843543 16.571L0.027871 17H14.9714L14.9916 16.5758C14.996 16.5131 15 16.4507 15 16.3865C15 13.6391 13.2853 11.1248 10.6289 9.97366ZM0.732853 16.3103C0.764371 13.8822 2.2893 11.6548 4.61347 10.6289L4.68819 10.6013L4.69697 10.5934C4.87902 10.5151 5.06693 10.4437 5.25741 10.3806L5.31783 10.3603C5.4215 10.3265 5.52478 10.2954 5.6321 10.2668C5.76582 10.2299 5.90209 10.1968 6.03871 10.1678C6.10939 10.1537 6.18012 10.1403 6.25302 10.1275C6.31087 10.1175 6.36838 10.1072 6.42663 10.0985L6.45518 10.0937C6.55994 10.0782 6.6651 10.064 6.76985 10.0533L7.00941 10.0337C7.32294 10.012 7.62297 10.0089 7.98632 10.0337L8.21926 10.052C8.27677 10.0582 8.33428 10.0655 8.40427 10.0748L8.48817 10.0861C8.57571 10.0982 8.66326 10.1123 8.75114 10.1279L8.79218 10.1351C8.84165 10.1438 8.89073 10.1527 8.93724 10.162C9.08155 10.1917 9.2233 10.2268 9.36396 10.2651C9.45698 10.2907 9.54931 10.3169 9.63943 10.3451C9.7537 10.381 9.86655 10.42 9.97826 10.4617C10.0856 10.5013 10.1914 10.5438 10.2962 10.589L10.3145 10.5969C12.6914 11.6235 14.235 13.8582 14.2665 16.3097H0.732853V16.3103ZM5.68933 8.45632C5.74427 8.47805 5.80104 8.497 5.85781 8.51599L5.97687 8.55666C6.02264 8.57319 6.06881 8.58945 6.11571 8.60324C6.55236 8.73255 7.00912 8.79909 7.47358 8.80258L7.51057 8.80328C7.66993 8.80328 7.82964 8.79533 7.98273 8.78052C8.03545 8.7757 8.08674 8.76775 8.13838 8.75949L8.25306 8.74329C8.31752 8.73534 8.38198 8.72638 8.44941 8.71399C8.49558 8.70503 8.54026 8.69365 8.58494 8.68228L8.71022 8.65228C8.77212 8.63817 8.83402 8.624 8.89523 8.60608C8.9333 8.59471 8.97069 8.58161 9.00768 8.56847L9.10839 8.53434C9.18021 8.51089 9.25271 8.48675 9.32526 8.45815C9.35348 8.44677 9.38095 8.43438 9.40802 8.42193L9.44062 8.40674C9.53991 8.365 9.6388 8.32223 9.73694 8.2726L9.80067 8.23676C9.91055 8.17811 10.0201 8.11742 10.1311 8.04605C10.1886 8.00951 10.2435 7.96847 10.2977 7.92779L10.4853 7.79054C11.5637 6.95015 12.1835 5.71693 12.1835 4.43788L12.1857 4.40134C12.1857 1.97429 10.0883 0 7.51023 0C5.04943 0 3.00214 1.81149 2.84939 4.12409L2.84535 4.18135C2.83948 4.25411 2.83475 4.32687 2.83475 4.40134C2.83401 6.17409 3.95454 7.76558 5.68933 8.45632ZM3.57575 4.22915L3.58014 4.16707C3.70906 2.21693 5.43507 0.689611 7.50983 0.689611C9.68422 0.689611 11.4527 2.35456 11.4546 4.36985L11.4523 4.40606C11.4509 5.51029 10.9278 6.55002 10.0139 7.26421L9.83988 7.38907C9.80107 7.41874 9.76185 7.44836 9.71312 7.48013C9.62523 7.53636 9.53216 7.58701 9.43766 7.6374L9.38528 7.66739C9.30617 7.70742 9.22301 7.74289 9.13655 7.77911L9.03949 7.82327C8.9838 7.845 8.92521 7.86394 8.8673 7.88293L8.74641 7.92398C8.72299 7.93225 8.69916 7.94121 8.67608 7.94775C8.63105 7.96085 8.58489 7.97088 8.53906 7.98156L8.39292 8.01676C8.36141 8.0247 8.33029 8.03296 8.30247 8.03849C8.25374 8.04745 8.20393 8.05367 8.15451 8.06022L8.01533 8.07986C7.98164 8.08539 7.9479 8.09091 7.91017 8.09435C7.7882 8.10642 7.66549 8.11297 7.54095 8.11399L7.50653 8.11366H7.50579C7.10471 8.11334 6.71092 8.05711 6.33435 7.94609C6.30175 7.93643 6.26989 7.92436 6.23803 7.91298L6.10032 7.86576C6.05746 7.8516 6.015 7.83781 5.97396 7.8216C4.51168 7.23936 3.56657 5.89647 3.56657 4.40156C3.56657 4.34328 3.57136 4.28603 3.57575 4.22915Z" fill="#0F2143"/>
</svg>
